<svg xmlns="http://www.w3.org/2000/svg" version="1.1" xmlns:xlink="http://www.w3.org/1999/xlink" width="200" height="200"><svg xmlns="http://www.w3.org/2000/svg" version="1.1" xmlns:xlink="http://www.w3.org/1999/xlink" viewBox="0 0 200 200"><rect width="200" height="200" fill="url('#gradient')"></rect><defs><linearGradient id="SvgjsLinearGradient1001" gradientTransform="rotate(45 0.5 0.5)"><stop offset="0%" stop-color="#1eff73"></stop><stop offset="100%" stop-color="#a4ba32"></stop></linearGradient></defs><g><g fill="#4083ff" transform="matrix(1.9683895771038018,0,0,1.9683895771038018,10.056080378041415,113.99462502250199)" stroke="#00b7ff" stroke-width="0.2"><path d="M3.65-14.22L6.28-8.05L8.90-14.22L12.60-14.22L8.02-5.11L8.02 0L4.54 0L4.54-5.11L-0.03-14.22L3.65-14.22ZM13.63-14.22L18.13-14.22L21.31-4.33L24.47-14.22L28.98-14.22L28.98 0L25.55 0L25.55-3.32L25.88-10.12L22.44 0L20.18 0L16.73-10.13L17.06-3.32L17.06 0L13.63 0L13.63-14.22ZM42.04-14.22L42.04-11.57L37.77-11.57L37.77 0L34.35 0L34.35-11.57L30.16-11.57L30.16-14.22L42.04-14.22ZM47.11-7.40L47.11-4.85L41.24-4.85L41.24-7.40L47.11-7.40ZM49.82-14.22L54.33-14.22L57.50-4.33L60.66-14.22L65.18-14.22L65.18 0L61.74 0L61.74-3.32L62.07-10.12L58.63 0L56.37 0L52.92-10.13L53.25-3.32L53.25 0L49.82 0L49.82-14.22ZM75.15 0L72.64-5.02L70.78-5.02L70.78 0L67.35 0L67.35-14.22L72.95-14.22Q75.48-14.22 76.90-13.10Q78.33-11.97 78.33-9.92L78.33-9.92Q78.33-8.44 77.73-7.46Q77.13-6.48 75.85-5.88L75.85-5.88L78.82-0.15L78.82 0L75.15 0ZM70.78-11.57L70.78-7.67L72.95-7.67Q73.93-7.67 74.42-8.18Q74.91-8.69 74.91-9.61Q74.91-10.53 74.41-11.05Q73.92-11.57 72.95-11.57L72.95-11.57L70.78-11.57ZM86.17 0L80.40 0L80.40-14.22L85.51-14.22Q88.25-14.22 89.68-13.21Q91.11-12.21 91.11-10.29L91.11-10.29Q91.11-9.19 90.61-8.41Q90.10-7.63 89.11-7.26L89.11-7.26Q90.22-6.96 90.82-6.16Q91.42-5.36 91.42-4.21L91.42-4.21Q91.42-2.12 90.09-1.07Q88.77-0.02 86.17 0L86.17 0ZM86.23-6.04L83.83-6.04L83.83-2.64L86.07-2.64Q87.00-2.64 87.50-3.06Q88.00-3.49 88.00-4.26L88.00-4.26Q88.00-6.04 86.23-6.04L86.23-6.04ZM83.83-11.57L83.83-8.29L85.62-8.29Q86.74-8.30 87.22-8.70Q87.70-9.10 87.70-9.88L87.70-9.88Q87.70-10.78 87.18-11.18Q86.66-11.57 85.51-11.57L85.51-11.57L83.83-11.57Z"></path></g></g></svg><style>@media (prefers-color-scheme: light) { :root { filter: none; } }
@media (prefers-color-scheme: dark) { :root { filter: none; } }
</style></svg>